<svg xmlns="http://www.w3.org/2000/svg"  viewBox="0 0 100 100" width="50px" height="50px"><path fill="#f1bc19" d="M78,13c-0.552,0-1,0.448-1,1s0.448,1,1,1s1-0.448,1-1S78.552,13,78,13z"/><path fill="#f9dbd2" d="M50,12c-20.987,0-38,17.013-38,38s17.013,38,38,38s38-17.013,38-38S70.987,12,50,12z"/><path fill="#f1bc19" d="M84,12c-2.209,0-4,1.791-4,4s1.791,4,4,4s4-1.791,4-4S86.209,12,84,12z"/><path fill="#ee3e54" d="M14,24c-1.105,0-2,0.895-2,2s0.895,2,2,2s2-0.895,2-2S15.105,24,14,24z"/><path fill="#fbcd59" d="M78,75c-1.105,0-2,0.895-2,2s0.895,2,2,2s2-0.895,2-2S79.105,75,78,75z M17,74c-2.209,0-4,1.791-4,4	s1.791,4,4,4s4-1.791,4-4S19.209,74,17,74z"/><path fill="#ee3e54" d="M24,81c-1.105,0-2,0.895-2,2s0.895,2,2,2s2-0.895,2-2S25.105,81,24,81z"/><path fill="#fff" d="M66.483,76.034c-1.371,0-2.483,1.112-2.483,2.483S65.112,81,66.483,81s2.483-1.112,2.483-2.483	S67.854,76.034,66.483,76.034z M16,47c-0.552,0-1,0.448-1,1s0.448,1,1,1c0.552,0,1-0.448,1-1S16.552,47,16,47z"/><path fill="#f1bc19" d="M86,30c-0.552,0-1,0.448-1,1s0.448,1,1,1s1-0.448,1-1S86.552,30,86,30z"/><path fill="#fff" d="M80,64c-1.105,0-2,0.895-2,2s0.895,2,2,2s2-0.895,2-2S81.105,64,80,64z"/><path fill="#6e78ad" d="M76.455,56.299c-0.532-4.997-3.791-18.084-4.901-20.795c-0.941-2.297-2.511-3.291-4.317-4.254 c-2.069-0.921-4.323-1.668-6.699-2.22c-0.502-0.105-0.966-0.162-1.349-0.162c-0.973,0-1.107,0.335-1.181,0.515l-0.853,2.126 L56.71,32.62l-1.166-0.267c-1.856-0.425-3.729-0.64-5.568-0.64c-1.838,0-3.694,0.215-5.518,0.639l-1.169,0.271l-0.447-1.114 l-0.853-2.126c-0.072-0.179-0.206-0.514-1.179-0.514c-0.383,0-0.847,0.057-1.379,0.168c-2.346,0.546-4.599,1.293-6.668,2.214 c-1.807,0.962-3.376,1.956-4.317,4.254c-1.11,2.711-4.369,15.798-4.901,20.795c-0.454,4.262,0.208,4.896,0.909,5.567 c1.657,1.497,5.758,4.208,8.347,4.985c0.214,0.064,0.429,0.131,0.642,0.198c0.906,0.282,1.761,0.55,2.432,0.55 c0.525,0,0.836-0.156,1.146-0.574c1.187-1.601,1.776-3.531,1.782-3.55l0.345-1.145l1.185,0.159 c3.277,0.446,6.564,0.672,9.771,0.672c3.204,0,6.418-0.225,9.554-0.671l1.195-0.169l0.344,1.156 c0.005,0.017,0.595,1.947,1.782,3.549c0.31,0.418,0.621,0.573,1.146,0.573c0.671,0,1.526-0.267,2.432-0.55 c0.213-0.067,0.428-0.134,0.642-0.198c2.589-0.778,6.69-3.488,8.376-5.013C76.247,61.195,76.909,60.561,76.455,56.299z M40.5,57 c-3.038,0-5.5-3.018-5.5-6.742c0-3.724,2.462-6.742,5.5-6.742s5.5,3.018,5.5,6.742C46,53.982,43.538,57,40.5,57z M59.5,57 c-3.038,0-5.5-3.018-5.5-6.742c0-3.724,2.462-6.742,5.5-6.742s5.5,3.018,5.5,6.742C65,53.982,62.538,57,59.5,57z"/><path fill="#472b29" d="M64.125,68.3c-0.742,0-1.269-0.264-1.708-0.856c-1.269-1.713-1.887-3.754-1.893-3.774l-0.17-0.571 l-0.599,0.084c-6.325,0.9-12.897,0.9-19.518,0l-0.592-0.08l-0.174,0.574c-0.026,0.088-0.65,2.094-1.889,3.765 c-0.44,0.593-0.968,0.857-1.709,0.857c-0.773,0-1.672-0.28-2.622-0.577l-0.652-0.201c-2.679-0.803-6.892-3.579-8.616-5.136 c-0.988-0.946-1.592-1.877-1.136-6.161c0.537-5.039,3.828-18.248,4.95-20.986c1.033-2.525,2.782-3.62,4.635-4.606 c2.154-0.961,4.44-1.72,6.839-2.278c1.955-0.412,2.988-0.168,3.365,0.764l1.077,2.686L44.3,31.67 c3.751-0.873,7.591-0.872,11.4,0.001l0.583,0.133l1.075-2.682c0.388-0.941,1.483-1.162,3.323-0.777 c2.434,0.565,4.73,1.327,6.84,2.266c1.898,1.01,3.647,2.106,4.68,4.628c1.122,2.738,4.413,15.947,4.95,20.986l0,0 c0.455,4.273-0.165,5.231-1.092,6.119c-1.79,1.62-5.937,4.361-8.659,5.179l-0.634,0.195C65.809,68.017,64.904,68.3,64.125,68.3z M61.353,61.545l0.516,1.733c0.005,0.017,0.565,1.837,1.673,3.332c0.177,0.238,0.281,0.29,0.584,0.29 c0.565,0,1.37-0.251,2.223-0.518l0.651-0.2c2.458-0.739,6.508-3.416,8.106-4.862c0.52-0.498,1.071-1.027,0.653-4.947l0,0 c-0.527-4.956-3.755-17.922-4.853-20.604c-0.859-2.097-2.258-2.974-3.998-3.901c-1.984-0.881-4.196-1.614-6.528-2.156 c-0.444-0.092-0.861-0.143-1.19-0.143c-0.428,0-0.547,0.077-0.549,0.078l-1.504,3.79l-1.749-0.401 c-3.604-0.825-7.227-0.826-10.771-0.001l-1.753,0.407l-1.523-3.797c0-0.003-0.073-0.075-0.53-0.074 c-0.334,0-0.75,0.051-1.235,0.153c-2.297,0.535-4.498,1.266-6.527,2.168c-1.694,0.904-3.094,1.78-3.953,3.879 c-1.098,2.682-4.325,15.648-4.853,20.604c-0.418,3.92,0.124,4.438,0.697,4.987c1.575,1.423,5.608,4.083,8.063,4.82l0.651,0.2 c0.862,0.269,1.662,0.518,2.222,0.518c0.303,0,0.406-0.052,0.585-0.292c1.096-1.479,1.65-3.262,1.674-3.337l0.517-1.713 l1.775,0.238c6.498,0.884,12.937,0.883,19.134,0.002L61.353,61.545z M59.5,57.7c-3.419,0-6.2-3.339-6.2-7.442 s2.781-7.442,6.2-7.442s6.2,3.339,6.2,7.442S62.919,57.7,59.5,57.7z M59.5,44.216c-2.646,0-4.8,2.71-4.8,6.042 s2.153,6.042,4.8,6.042s4.8-2.71,4.8-6.042S62.146,44.216,59.5,44.216z M40.5,57.7c-3.419,0-6.2-3.339-6.2-7.442 s2.781-7.442,6.2-7.442s6.2,3.339,6.2,7.442S43.919,57.7,40.5,57.7z M40.5,44.216c-2.646,0-4.8,2.71-4.8,6.042 s2.153,6.042,4.8,6.042s4.8-2.71,4.8-6.042S43.146,44.216,40.5,44.216z"/><path fill="#472b29" d="M49.691,63.876c-4.63,0-9.185-0.492-13.828-1.478c-0.378-0.08-0.619-0.452-0.539-0.83 c0.08-0.379,0.456-0.622,0.83-0.54c9.266,1.965,17.808,1.955,27.696-0.035c0.372-0.079,0.747,0.168,0.824,0.548 c0.076,0.379-0.169,0.748-0.549,0.824C59.127,63.373,54.371,63.876,49.691,63.876z"/><path fill="#472b29" d="M57.605,35.621c-0.044,0-0.09-0.006-0.135-0.019c-2.148-0.599-5.495-0.932-8.491-0.843 c-0.269-0.003-0.507-0.209-0.515-0.485s0.21-0.506,0.485-0.515c3.101-0.088,6.552,0.255,8.79,0.88 c0.266,0.074,0.421,0.35,0.347,0.616C58.025,35.477,57.824,35.621,57.605,35.621z"/><g><path fill="#472b29" d="M42.189,35.669c-0.222,0-0.424-0.148-0.483-0.373c-0.07-0.267,0.089-0.541,0.355-0.611 c1.2-0.317,2.405-0.568,3.582-0.746c0.261-0.036,0.527,0.147,0.568,0.42s-0.146,0.528-0.42,0.569 c-1.141,0.172-2.31,0.416-3.475,0.723C42.274,35.664,42.231,35.669,42.189,35.669z"/></g></svg>