<svg width="90" height="90" viewBox="0 0 90 90" fill="none" xmlns="http://www.w3.org/2000/svg">
<path d="M78.7499 45C78.7499 46.8534 77.9985 48.5315 76.7838 49.7462C75.5691 50.9609 73.891 51.7122 72.0376 51.7122C70.1843 51.7122 68.5062 50.9609 67.2915 49.7462C66.0768 48.5315 65.3254 46.8534 65.3254 45C65.3254 43.1467 66.0768 41.4686 67.2915 40.2539C68.5062 39.0392 70.1843 38.2878 72.0376 38.2878C73.891 38.2878 75.5691 39.0392 76.7838 40.2539C77.9985 41.4686 78.7499 43.1467 78.7499 45ZM74.7952 47.7576C75.5008 47.052 75.9373 46.077 75.9373 45C75.9373 43.923 75.5008 42.948 74.7952 42.2424C74.0897 41.5368 73.1146 41.1004 72.0376 41.1004C70.9606 41.1004 69.9857 41.5368 69.28 42.2424C68.5744 42.948 68.138 43.923 68.138 45C68.138 46.077 68.5744 47.052 69.28 47.7576C69.9857 48.4632 70.9606 48.8997 72.0376 48.8997C73.1146 48.8997 74.0897 48.4632 74.7952 47.7576Z" fill="#C3E7FB"/>
<path d="M24.6744 45C24.6744 46.8534 23.9231 48.5315 22.7084 49.7462C21.4936 50.9609 19.8156 51.7122 17.9622 51.7122C16.1089 51.7122 14.4308 50.9609 13.2161 49.7462C12.0014 48.5315 11.25 46.8534 11.25 45C11.25 43.1467 12.0014 41.4686 13.2161 40.2539C14.4308 39.0392 16.1089 38.2878 17.9622 38.2878C19.8156 38.2878 21.4936 39.0392 22.7084 40.2539C23.9231 41.4686 24.6744 43.1467 24.6744 45ZM20.7198 47.7576C21.4254 47.052 21.8619 46.077 21.8619 45C21.8619 43.923 21.4254 42.948 20.7198 42.2424C20.0142 41.5368 19.0392 41.1004 17.9622 41.1004C16.8852 41.1004 15.9102 41.5368 15.2046 42.2424C14.499 42.948 14.0626 43.923 14.0626 45C14.0626 46.077 14.499 47.052 15.2046 47.7576C15.9102 48.4632 16.8852 48.8997 17.9622 48.8997C19.0392 48.8997 20.0142 48.4632 20.7198 47.7576Z" fill="#C3E7FB"/>
<path d="M51.681 17.3115C56.8615 18.5571 61.4909 21.2184 65.1363 24.8639C68.7817 28.5093 71.443 33.1386 72.6886 38.3192C72.4744 38.2986 72.2574 38.2879 72.0379 38.2879C71.2798 38.2879 70.5511 38.4137 69.8714 38.6453C68.7164 34.1112 66.3546 30.0593 63.1478 26.8525C59.9409 23.6455 55.8889 21.2836 51.3548 20.1287C51.5865 19.449 51.7122 18.7203 51.7122 17.9622C51.7122 17.7427 51.7015 17.5257 51.6809 17.3116L51.681 17.3115ZM38.6453 20.1287C34.1111 21.2836 30.0593 23.6455 26.8524 26.8524C23.6455 30.0593 21.2836 34.1112 20.1287 38.6453C19.449 38.4137 18.7203 38.2878 17.9622 38.2878C17.7427 38.2878 17.5256 38.2985 17.3115 38.3191C18.5571 33.1387 21.2184 28.5093 24.8638 24.8638C28.5093 21.2184 33.1386 18.5571 38.3191 17.3115C38.2985 17.5256 38.2878 17.7427 38.2878 17.9622C38.2878 18.7203 38.4136 19.449 38.6453 20.1287L38.6453 20.1287ZM20.1287 51.3548C21.2836 55.889 23.6455 59.9409 26.8525 63.1478C30.0593 66.3546 34.1111 68.7164 38.6453 69.8715C38.4137 70.5511 38.2879 71.2798 38.2879 72.0378C38.2879 72.2574 38.2986 72.4745 38.3192 72.6886C33.1387 71.443 28.5093 68.7817 24.8639 65.1363C21.2184 61.4909 18.5571 56.8614 17.3115 51.681C17.5257 51.7016 17.7427 51.7123 17.9623 51.7123C18.7203 51.7123 19.4489 51.5865 20.1286 51.3549L20.1287 51.3548ZM51.355 69.8715C55.8892 68.7165 59.941 66.3546 63.1479 63.1477C66.3548 59.9408 68.7167 55.8889 69.8716 51.3548C70.5513 51.5864 71.28 51.7122 72.038 51.7122C72.2576 51.7122 72.4746 51.7015 72.6887 51.6809C71.4431 56.8614 68.7819 61.4908 65.1365 65.1362C61.491 68.7816 56.8616 71.4429 51.6811 72.6885C51.7017 72.4743 51.7124 72.2573 51.7124 72.0377C51.7124 71.2797 51.5867 70.5511 51.355 69.8714L51.355 69.8715Z" fill="#C3E7FB"/>
<path d="M45.0001 11.2499C46.8535 11.2499 48.5316 12.0013 49.7463 13.216C50.961 14.4307 51.7123 16.1088 51.7123 17.9622C51.7123 19.8155 50.961 21.4936 49.7463 22.7083C48.5316 23.923 46.8535 24.6744 45.0001 24.6744C43.1468 24.6744 41.4687 23.923 40.254 22.7083C39.0393 21.4936 38.2879 19.8155 38.2879 17.9622C38.2879 16.1088 39.0393 14.4307 40.254 13.216C41.4687 12.0013 43.1468 11.2499 45.0001 11.2499ZM47.7577 15.2046C47.0521 14.499 46.0771 14.0625 45.0001 14.0625C43.9231 14.0625 42.9481 14.499 42.2425 15.2046C41.5369 15.9101 41.1005 16.8852 41.1005 17.9622C41.1005 19.0392 41.5369 20.0141 42.2425 20.7198C42.9481 21.4254 43.9231 21.8618 45.0001 21.8618C46.0771 21.8618 47.0522 21.4254 47.7577 20.7198C48.4633 20.0141 48.8998 19.0392 48.8998 17.9622C48.8998 16.8852 48.4633 15.9101 47.7577 15.2046Z" fill="#C3E7FB"/>
<path d="M45.0001 65.3256C46.8535 65.3256 48.5316 66.077 49.7463 67.2917C50.961 68.5064 51.7123 70.1845 51.7123 72.0378C51.7123 73.8911 50.961 75.5693 49.7463 76.784C48.5316 77.9987 46.8535 78.75 45.0001 78.75C43.1468 78.75 41.4687 77.9987 40.254 76.784C39.0393 75.5693 38.2879 73.8911 38.2879 72.0378C38.2879 70.1845 39.0393 68.5064 40.254 67.2917C41.4687 66.077 43.1468 65.3256 45.0001 65.3256ZM47.7577 69.2802C47.0521 68.5746 46.0771 68.1382 45.0001 68.1382C43.9231 68.1382 42.9481 68.5746 42.2425 69.2802C41.5369 69.9858 41.1005 70.9608 41.1005 72.0378C41.1005 73.1148 41.5369 74.0898 42.2425 74.7954C42.9481 75.501 43.9231 75.9375 45.0001 75.9375C46.0771 75.9375 47.0522 75.501 47.7577 74.7954C48.4633 74.0898 48.8998 73.1148 48.8998 72.0378C48.8998 70.9608 48.4633 69.9858 47.7577 69.2802Z" fill="#C3E7FB"/>
<path d="M45.0001 29.2261C46.9416 29.2261 48.6995 30.0131 49.9718 31.2856C51.2443 32.558 52.0314 34.3158 52.0314 36.2573C52.0314 38.1988 51.2443 39.9567 49.9718 41.2291C48.6995 42.5015 46.9416 43.2886 45.0001 43.2886C43.0586 43.2886 41.3008 42.5015 40.0284 41.2291C38.7559 39.9567 37.9688 38.1988 37.9688 36.2573C37.9688 34.3158 38.7559 32.558 40.0284 31.2856C41.3008 30.0131 43.0586 29.2261 45.0001 29.2261ZM47.9833 33.2742C47.22 32.5109 46.1652 32.0386 45.0001 32.0386C43.835 32.0386 42.7802 32.5109 42.0169 33.2742C41.2536 34.0375 40.7814 35.0922 40.7814 36.2574C40.7814 37.4224 41.2536 38.4772 42.0169 39.2405C42.7802 40.0038 43.835 40.4761 45.0001 40.4761C46.1652 40.4761 47.22 40.0038 47.9833 39.2405C48.7466 38.4772 49.2188 37.4224 49.2188 36.2574C49.2188 35.0922 48.7466 34.0375 47.9833 33.2742Z" fill="#C3E7FB"/>
<path d="M39.5507 43.3721H50.4492C51.5625 43.3721 52.5736 43.8266 53.3056 44.5587C54.0377 45.2907 54.4922 46.3019 54.4922 47.4151V57.4347V58.8409H53.0859H36.9141H35.5078V57.4347V47.4151C35.5078 46.3018 35.9623 45.2907 36.6943 44.5586C37.4264 43.8266 38.4375 43.3721 39.5508 43.3721H39.5507ZM50.4492 46.1847H39.5507C39.2138 46.1847 38.9065 46.3235 38.6829 46.5472C38.4592 46.7708 38.3204 47.0782 38.3204 47.4151V56.0284H51.6796V47.4151C51.6796 47.0783 51.5407 46.7708 51.317 46.5472C51.0934 46.3235 50.786 46.1847 50.4492 46.1847H50.4492Z" fill="#C3E7FB"/>
</svg>
